<svg xmlns="http://www.w3.org/2000/svg" viewBox="0 0 24 24" width="48" height="48" fill="none"><rect width="24" height="24" rx="6" fill="#0a84ff" opacity="0.12"/><path d="M12 2a10 10 0 0 0-3.16 19.47c.5.09.68-.22.68-.48 0-.23-.01-.85-.01-1.67-2.77.6-3.36-1.33-3.36-1.33-.45-1.16-1.1-1.47-1.1-1.47-.9-.62.07-.6.07-.6 1 .07 1.54 1.03 1.54 1.03.89 1.52 2.34 1.08 2.91.83.09-.65.35-1.08.64-1.33-2.21-.25-4.53-1.1-4.53-4.9 0-1.08.39-1.97 1.03-2.66-.1-.25-.45-1.27.1-2.64 0 0 .84-.27 2.75 1.02A9.56 9.56 0 0 1 12 6.8c.85.004 1.71.115 2.51.34 1.9-1.29 2.74-1.02 2.74-1.02.55 1.37.2 2.39.1 2.64.64.69 1.03 1.58 1.03 2.66 0 3.81-2.33 4.65-4.55 4.9.36.31.68.94.68 1.9 0 1.37-.01 2.48-.01 2.82 0 .26.18.57.69.47A10 10 0 0 0 12 2z" fill="#0a84ff"/></svg>